<svg id="Layer_1" data-name="Layer 1" xmlns="http://www.w3.org/2000/svg" xmlns:xlink="http://www.w3.org/1999/xlink" viewBox="0 0 227.77 227.77"><defs><clipPath id="clip-path"><path d="M181.82,94a23.4,23.4,0,0,1-2.34-13.11c.47-7,7-12.63,15.44-13.1,6.08-.94,8.42-3.28,12.17-7-.47,13.1-.94,20.12-14.51,22.93C186.5,85.57,183.22,88.38,181.82,94Z" fill="none"/></clipPath><linearGradient id="linear-gradient" x1="3595.3" y1="208.05" x2="3595.3" y2="249.74" gradientTransform="translate(-3402.09 -171.08) scale(1 1.08)" gradientUnits="userSpaceOnUse"><stop offset="0" stop-color="#a9c725"/><stop offset="0.74" stop-color="#7eb636"/></linearGradient><clipPath id="clip-path-2"><path d="M156.31,120.67H151.4c-2.34-27.61-19.89-44.92-59.2-45v.11h0v-.11H75.59v45H68.5C52.66,121.14,45.64,108.5,45.17,95V75.64H31.83V88.15c.47,19.18,4.21,30.42,8.42,35.56,7.49,10.77,25.51,18.25,56.86,19.66h0V98.68h8.43c13.33,0,22,11.91,22,25.24v19.45c34.16-1.87,50.31-10.3,57.33-19.66,6.55-8.89,8.89-16.84,8.89-35.56v-3h-.47c-4.91,1.87-9.42,4.66-11.46,12.16.47,15-11.47,22.93-25.51,23.4" fill="none"/></clipPath><linearGradient id="linear-gradient-2" x1="113.49" y1="71.07" x2="113.49" y2="148.75" gradientUnits="userSpaceOnUse"><stop offset="0" stop-color="#1a98d5"/><stop offset="0.29" stop-color="#1a98d5"/><stop offset="0.82" stop-color="#0b8597"/><stop offset="0.99" stop-color="#0b8597"/></linearGradient><clipPath id="clip-path-3"><path d="M32.3,76V88.15c.47,19.18,4.21,30.42,8.42,35.56,7.49,10.77,25.51,17.32,56.39,19.66h0l-21.52-.24H74.18c-38.37-.46-51-20.12-53.35-48.67l-.15-18.82H32.3" fill="none"/></clipPath><linearGradient id="linear-gradient-3" x1="114.2" y1="68.73" x2="114.2" y2="154.37" gradientUnits="userSpaceOnUse"><stop offset="0" stop-color="#32acd8"/><stop offset="0.47" stop-color="#32acd8"/><stop offset="0.81" stop-color="#1a91a6"/><stop offset="0.99" stop-color="#1a91a6"/></linearGradient><clipPath id="clip-path-4"><path d="M127.53,143.37c33.7-2.81,49.84-10.3,56.86-19.66,6.55-8.89,8.89-16.84,8.89-35.56v-3h0c6.09-1.41,9.36-2.34,12.87-8.43v.47l-.47,23.4h0c-3.14,23.62-16.84,39.31-51.47,42.69l-26.44.13" fill="none"/></clipPath><linearGradient id="linear-gradient-4" x1="114.43" y1="69.19" x2="114.43" y2="154.83" xlink:href="#linear-gradient-3"/><clipPath id="clip-path-5"><path d="M28,159.51a5,5,0,0,0,5.14,4.22,5,5,0,0,0,5.14-4.22v-.23h3.27v.23A8.21,8.21,0,0,1,33.17,167a8.22,8.22,0,0,1-8.42-7.49v-.23H28" fill="#5c5c5e"/></clipPath><clipPath id="clip-path-6"><path d="M45.82,157.17a5.24,5.24,0,0,1,10.27,0v.24h3.28v-.24a8.48,8.48,0,0,0-16.84,0v.24H45.8" fill="#5c5c5e"/></clipPath></defs><title>Brand Guide</title><g clip-path="url(#clip-path)"><rect x="180.17" y="52.86" width="26" height="44.86" transform="translate(276.51 265.13) rotate(-135)" fill="url(#linear-gradient)"/></g><path d="M193.63,75.38c-2.21.81-7.08,2.85-9.37,6.28-1.38,2.14-1.89,4.31-2.44,8.24-.27-5.7.71-9.17,2.53-11.3,2.7-2.54,3.59-3,8.9-5,6.19-2,9.75-4.08,12.55-9.68C202.93,71.73,199.38,73.37,193.63,75.38Z" fill="#fff"/><g clip-path="url(#clip-path-2)"><rect x="25.51" y="71.07" width="175.96" height="77.68" stroke="#88cff3" stroke-miterlimit="10" stroke-width="0.36" fill="url(#linear-gradient-2)"/></g><g clip-path="url(#clip-path-3)"><rect x="10.54" y="68.73" width="207.31" height="85.64" fill="url(#linear-gradient-3)"/></g><g clip-path="url(#clip-path-4)"><rect x="10.77" y="69.19" width="207.31" height="85.64" fill="url(#linear-gradient-4)"/></g><rect x="24.74" y="149.69" width="3.28" height="9.83" fill="#5c5c5e"/><rect x="38.31" y="149.69" width="3.28" height="9.83" fill="#5c5c5e"/><path d="M28,159.51a5,5,0,0,0,5.14,4.22,5,5,0,0,0,5.14-4.22v-.23h3.27v.23A8.21,8.21,0,0,1,33.17,167a8.22,8.22,0,0,1-8.42-7.49v-.23H28" fill="#5c5c5e"/><g clip-path="url(#clip-path-5)"><rect x="23.57" y="158.34" width="20.12" height="10.3" fill="#5c5c5e"/></g><rect x="42.52" y="157.17" width="3.28" height="9.83" fill="#5c5c5e"/><rect x="56.09" y="157.17" width="3.28" height="9.83" fill="#5c5c5e"/><path d="M45.82,157.17a5.24,5.24,0,0,1,10.27,0v.24h3.28v-.24a8.48,8.48,0,0,0-16.84,0v.24H45.8" fill="#5c5c5e"/><g clip-path="url(#clip-path-6)"><rect x="41.35" y="148.05" width="20.12" height="10.3" fill="#5c5c5e"/></g><rect x="60.3" y="149.69" width="3.28" height="17.32" fill="#5c5c5e"/><rect x="60.3" y="145.01" width="3.28" height="3.28" rx="1.26" fill="#5c5c5e"/><path d="M73.17,167a8.66,8.66,0,1,1,7-13.68l-2.66,1.9a5.39,5.39,0,1,0,0,6.24l2.67,1.9A8.69,8.69,0,0,1,73.17,167Z" fill="#5c5c5e"/><path d="M178.47,167a8.66,8.66,0,1,1,7.05-13.68l-2.67,1.9a5.39,5.39,0,1,0,0,6.24l2.67,1.9A8.67,8.67,0,0,1,178.47,167Z" fill="#5c5c5e"/><path d="M88.15,167a8.66,8.66,0,1,1,8.65-8.66A8.66,8.66,0,0,1,88.15,167Zm0-14a5.39,5.39,0,1,0,5.38,5.38A5.39,5.39,0,0,0,88.15,153Z" fill="#5c5c5e"/><path d="M110.84,156.47h-3.27a3.51,3.51,0,0,0-7,0H97.27a6.79,6.79,0,0,1,13.57,0Z" fill="#5c5c5e"/><path d="M121.14,156.47h-3.28a3.51,3.51,0,0,0-7,0h-3.27a6.79,6.79,0,0,1,13.57,0Z" fill="#5c5c5e"/><path d="M131.43,156.47h-3.27a3.51,3.51,0,0,0-7,0h-3.28a6.79,6.79,0,0,1,13.57,0Z" fill="#5c5c5e"/><path d="M141.73,156.47h-3.28a3.51,3.51,0,1,0-7,0h-3.27a6.79,6.79,0,0,1,13.57,0Z" fill="#5c5c5e"/><rect x="97.27" y="156.24" width="3.28" height="10.76" fill="#5c5c5e"/><rect x="107.57" y="156.24" width="3.28" height="10.76" fill="#5c5c5e"/><rect x="117.86" y="156.24" width="3.28" height="10.76" fill="#5c5c5e"/><rect x="128.16" y="156.24" width="3.28" height="10.76" fill="#5c5c5e"/><rect x="138.45" y="156.24" width="3.28" height="10.76" fill="#5c5c5e"/><path d="M150.86,167a8.66,8.66,0,1,1,8.65-8.66h-3.27a5.39,5.39,0,1,0-5.38,5.39,5.32,5.32,0,0,0,3.8-1.58l2.32,2.32A8.63,8.63,0,0,1,150.86,167Z" fill="#5c5c5e"/><polygon points="159.51 159.98 159.51 157.64 158.55 156.71 145.08 156.71 145.08 159.98 159.51 159.98" fill="#5c5c5e"/><path d="M163.73,158.34h-3.28a8.66,8.66,0,0,1,8.66-8.65,9.25,9.25,0,0,1,1.74.17l-.66,3.21a5.57,5.57,0,0,0-1.08-.11A5.39,5.39,0,0,0,163.73,158.34Z" fill="#5c5c5e"/><rect x="160.45" y="158.11" width="3.28" height="8.89" fill="#5c5c5e"/><path d="M193.44,167a8.66,8.66,0,1,1,8.66-8.66h-3.28a5.38,5.38,0,1,0-1.57,3.81l2.31,2.32A8.61,8.61,0,0,1,193.44,167Z" fill="#5c5c5e"/><polygon points="202.1 159.98 202.1 157.64 201.14 156.71 187.67 156.71 187.67 159.98 202.1 159.98" fill="#5c5c5e"/></svg>