<svg id="Layer_1" data-name="Layer 1" xmlns="http://www.w3.org/2000/svg" xmlns:xlink="http://www.w3.org/1999/xlink" viewBox="0 0 301.56 77.85"><defs><clipPath id="clip-path"><path d="M114.63,33.55a15.6,15.6,0,0,1-1.56-8.72c.31-4.68,4.68-8.42,10.28-8.73,4.06-.62,5.61-2.18,8.11-4.67-.32,8.72-.63,13.4-9.66,15.26C117.75,27.94,115.56,29.81,114.63,33.55Z" fill="none"/></clipPath><linearGradient id="linear-gradient" x1="743.19" y1="484.13" x2="743.19" y2="511.89" gradientTransform="translate(-621.01 -514.91) scale(1 1.08)" gradientUnits="userSpaceOnUse"><stop offset="0" stop-color="#b7c905"/><stop offset="0.74" stop-color="#83b627"/></linearGradient><clipPath id="clip-path-2"><path d="M97.65,51.31H94.37C92.82,32.93,81.13,21.4,55,21.32v.08h0v-.08H43.89v30H39.17c-10.55.31-15.22-8.1-15.53-17.12V21.32H14.76v8.34c.31,12.77,2.8,20.25,5.61,23.68,5,7.16,17,12.15,37.86,13.09h0V36.67h5.61c8.87,0,14.64,7.93,14.64,16.81v13c22.75-1.25,33.5-6.86,38.17-13.09,4.37-5.92,5.93-11.22,5.93-23.68v-2h-.32c-3.27,1.25-6.27,3.11-7.63,8.1.31,10-7.64,15.27-17,15.58" fill="none"/></clipPath><linearGradient id="linear-gradient-2" x1="69.13" y1="18.28" x2="69.13" y2="70.01" gradientUnits="userSpaceOnUse"><stop offset="0" stop-color="#249dd9"/><stop offset="0.29" stop-color="#249dd9"/><stop offset="0.82" stop-color="#00859a"/><stop offset="0.99" stop-color="#00859a"/></linearGradient><clipPath id="clip-path-3"><path d="M15.07,21.55v8.11c.31,12.77,2.8,20.25,5.61,23.68,5,7.16,17,11.53,37.55,13.09h0l-14.34-.16H43C17.41,66,9,52.87,7.43,33.86l-.1-12.54h7.74" fill="none"/></clipPath><linearGradient id="linear-gradient-3" x1="69.6" y1="16.72" x2="69.6" y2="73.75" gradientUnits="userSpaceOnUse"><stop offset="0" stop-color="#3db0dd"/><stop offset="0.47" stop-color="#3db0dd"/><stop offset="0.81" stop-color="#0a92a9"/><stop offset="0.99" stop-color="#0a92a9"/></linearGradient><clipPath id="clip-path-4"><path d="M78.48,66.43c22.44-1.87,33.19-6.86,37.86-13.09,4.37-5.92,5.92-11.22,5.92-23.68v-2h0c4-.94,6.24-1.56,8.57-5.61v.31l-.31,15.58h0c-2.09,15.73-11.22,26.18-34.28,28.43l-17.6.09" fill="none"/></clipPath><linearGradient id="linear-gradient-4" x1="69.76" y1="17.03" x2="69.76" y2="74.06" xlink:href="#linear-gradient-3"/></defs><title>Unicommerce Logos</title><path d="M133.47,20.9h0a11.25,11.25,0,0,1,11.25,11.25V49a0,0,0,0,1,0,0H133.47a0,0,0,0,1,0,0V20.9A0,0,0,0,1,133.47,20.9Z" fill="#adc90e"/><path d="M154.09,20.9h0a11.25,11.25,0,0,1,11.25,11.25V49a0,0,0,0,1,0,0H154.09a0,0,0,0,1,0,0V20.9A0,0,0,0,1,154.09,20.9Z" fill="#adc90e"/><path d="M149.4,64a16,16,0,0,1-15.93-15.93h11.25a4.69,4.69,0,0,0,9.37,0h11.25A16,16,0,0,1,149.4,64Z" fill="#adc90e"/><path d="M174.71,20.9h0A11.25,11.25,0,0,1,186,32.15V49a0,0,0,0,1,0,0H174.71a0,0,0,0,1,0,0V20.9A0,0,0,0,1,174.71,20.9Z" fill="#adc90e"/><path d="M170,64a16,16,0,0,1-15.93-15.93h11.25a4.69,4.69,0,0,0,9.37,0H186A16,16,0,0,1,170,64Z" fill="#adc90e"/><path d="M209.44,63.93a21.48,21.48,0,1,1,21.47-21.48A21.5,21.5,0,0,1,209.44,63.93Zm0-33.74a12.27,12.27,0,1,0,12.27,12.26A12.28,12.28,0,0,0,209.44,30.19Z" fill="#adc90e"/><rect x="221.71" y="42.45" width="9.2" height="20.62" fill="#adc90e"/><rect x="233.01" y="40.58" width="9.2" height="22.49" fill="#adc90e"/><path d="M249.79,19.7h9.37a0,0,0,0,1,0,0v0a9.37,9.37,0,0,1-9.37,9.37h0a0,0,0,0,1,0,0V19.7A0,0,0,0,1,249.79,19.7Z" fill="#adc90e"/><path d="M242.29,41.52h-9.37a22.47,22.47,0,0,1,17-21.82l2.29,9.09A13.11,13.11,0,0,0,242.29,41.52Z" fill="#adc90e"/><path d="M272.67,64a21.56,21.56,0,1,1,21.55-21.56h-8.15a13.4,13.4,0,1,0-3.93,9.48l5.77,5.77A21.41,21.41,0,0,1,272.67,64Z" fill="#adc90e"/><polygon points="294.22 46.53 294.22 40.71 291.83 38.38 258.29 38.38 258.29 46.53 294.22 46.53" fill="#adc90e"/><g clip-path="url(#clip-path)"><rect x="113.53" y="6.16" width="17.32" height="29.87" transform="translate(193.67 122.42) rotate(-135)" fill="url(#linear-gradient)"/></g><path d="M122.5,21.15c-1.47.54-4.72,1.9-6.25,4.18-.91,1.43-1.25,2.88-1.62,5.49-.18-3.79.48-6.1,1.69-7.52,1.79-1.7,2.39-2,5.92-3.32,4.12-1.33,6.49-2.71,8.36-6.44C128.69,18.72,126.33,19.81,122.5,21.15Z" fill="#fff"/><g clip-path="url(#clip-path-2)"><rect x="10.55" y="18.28" width="117.17" height="51.73" stroke="#9cd8f7" stroke-miterlimit="10" stroke-width="0.31" fill="url(#linear-gradient-2)"/></g><g clip-path="url(#clip-path-3)"><rect x="0.58" y="16.72" width="138.05" height="57.03" fill="url(#linear-gradient-3)"/></g><g clip-path="url(#clip-path-4)"><rect x="0.73" y="17.03" width="138.05" height="57.03" fill="url(#linear-gradient-4)"/></g></svg>